<?xml version="1.0" encoding="UTF-8"?>
<svg id="_レイヤー_1" data-name="レイヤー 1" xmlns="http://www.w3.org/2000/svg" xmlns:xlink="http://www.w3.org/1999/xlink" viewBox="0 0 1044.48 1044.48">
  <defs>
    <style>
      .cls-1 {
        letter-spacing: 0em;
      }

      .cls-2 {
        stroke: #2c1a00;
        stroke-width: 14.34px;
      }

      .cls-2, .cls-3, .cls-4, .cls-5, .cls-6, .cls-7 {
        stroke-miterlimit: 20.48;
      }

      .cls-2, .cls-5 {
        stroke-linecap: round;
      }

      .cls-2, .cls-5, .cls-6 {
        fill: none;
      }

      .cls-3 {
        fill: #ffe566;
      }

      .cls-3, .cls-4, .cls-5 {
        stroke-width: 12.8px;
      }

      .cls-3, .cls-4, .cls-5, .cls-7 {
        stroke: #d4920a;
      }

      .cls-8 {
        fill: #fa5;
        opacity: .4;
      }

      .cls-8, .cls-9, .cls-10, .cls-6 {
        isolation: isolate;
      }

      .cls-9 {
        opacity: .75;
      }

      .cls-9, .cls-11 {
        fill: #2c1a00;
      }

      .cls-4 {
        fill: #fff5cc;
      }

      .cls-10 {
        fill: #f59b00;
        font-family: Baloo2-ExtraBold, 'Baloo 2';
        font-size: 122.88px;
        font-weight: 700;
      }

      .cls-12, .cls-7 {
        fill: #fff;
      }

      .cls-6 {
        opacity: .25;
        stroke: #d48800;
        stroke-width: 20.48px;
      }

      .cls-7 {
        stroke-width: 10.24px;
      }

      .cls-13 {
        fill: url(#_名称未設定グラデーション);
      }

      .cls-14 {
        fill: rgba(232, 245, 255, .93);
        stroke: #b8d8f0;
        stroke-miterlimit: 20.48;
        stroke-width: 7.68px;
      }

      .cls-15 {
        letter-spacing: 0em;
      }
    </style>
    <radialGradient id="_名称未設定グラデーション" data-name="名称未設定グラデーション" cx="-435.82" cy="1062.81" fx="-435.82" fy="1062.81" r=".65" gradientTransform="translate(446805.47 1088740.98) scale(1024 -1024)" gradientUnits="userSpaceOnUse">
      <stop offset="0" stop-color="gold"/>
      <stop offset="1" stop-color="#f59b00"/>
    </radialGradient>
  </defs>
  <rect class="cls-13" x="10.24" y="10.24" width="1024" height="1024" rx="235.52" ry="235.52"/>
  <rect class="cls-6" x="10.24" y="10.24" width="1024" height="1024" rx="235.52" ry="235.52"/>
  <g>
    <ellipse class="cls-14" cx="317.44" cy="531.28" rx="174.08" ry="102.4" transform="translate(-126.69 100.26) rotate(-15)"/>
    <ellipse class="cls-14" cx="727.04" cy="531.28" rx="102.4" ry="174.08" transform="translate(25.69 1096.04) rotate(-75)"/>
    <ellipse class="cls-3" cx="522.24" cy="592.72" rx="133.12" ry="153.6"/>
    <path class="cls-9" d="M417.28,531.28h209.92c12.72,0,23.04,10.32,23.04,23.04h0c0,12.72-10.32,23.04-23.04,23.04h-209.92c-12.72,0-23.04-10.32-23.04-23.04h0c0-12.72,10.32-23.04,23.04-23.04Z"/>
    <path class="cls-9" d="M417.28,597.84h209.92c12.72,0,23.04,10.32,23.04,23.04h0c0,12.72-10.32,23.04-23.04,23.04h-209.92c-12.72,0-23.04-10.32-23.04-23.04h0c0-12.72,10.32-23.04,23.04-23.04Z"/>
    <path class="cls-9" d="M417.28,664.4h209.92c12.72,0,23.04,10.32,23.04,23.04h0c0,12.72-10.32,23.04-23.04,23.04h-209.92c-12.72,0-23.04-10.32-23.04-23.04h0c0-12.72,10.32-23.04,23.04-23.04Z"/>
    <circle class="cls-4" cx="522.24" cy="387.92" r="163.84"/>
    <path class="cls-2" d="M465.92,234.32c-20.48-44.37-42.67-80.21-66.56-107.52"/>
    <circle class="cls-11" cx="389.12" cy="116.56" r="25.6"/>
    <path class="cls-2" d="M578.56,234.32c20.48-44.37,42.67-80.21,66.56-107.52"/>
    <circle class="cls-11" cx="655.36" cy="116.56" r="25.6"/>
    <circle class="cls-11" cx="465.92" cy="372.56" r="28.16"/>
    <circle class="cls-11" cx="578.56" cy="372.56" r="28.16"/>
    <circle class="cls-12" cx="476.16" cy="362.32" r="10.24"/>
    <circle class="cls-12" cx="588.8" cy="362.32" r="10.24"/>
    <ellipse class="cls-8" cx="414.72" cy="423.76" rx="40.96" ry="25.6"/>
    <ellipse class="cls-8" cx="629.76" cy="423.76" rx="40.96" ry="25.6"/>
    <path class="cls-5" d="M471.04,439.12c34.13,27.31,68.27,27.31,102.4,0"/>
  </g>
  <g>
    <rect class="cls-7" x="358.4" y="766.29" width="327.68" height="153.6" rx="46.08" ry="46.08"/>
    <text class="cls-10" transform="translate(449.8 878.93)"><tspan class="cls-15" x="0" y="0">A</tspan><tspan class="cls-1" x="78.03" y="0">a</tspan></text>
  </g>
</svg>